<svg id="my-svg" width="100%" xmlns="http://www.w3.org/2000/svg" xmlns:xlink="http://www.w3.org/1999/xlink" class="flowchart" style="max-width: 1479.94px; background-color: white;" viewBox="0 0 1479.9375 1093" role="graphics-document document" aria-roledescription="flowchart-v2"><style>#my-svg{font-family:"trebuchet ms",verdana,arial,sans-serif;font-size:16px;fill:#333;}@keyframes edge-animation-frame{from{stroke-dashoffset:0;}}@keyframes dash{to{stroke-dashoffset:0;}}#my-svg .edge-animation-slow{stroke-dasharray:9,5!important;stroke-dashoffset:900;animation:dash 50s linear infinite;stroke-linecap:round;}#my-svg .edge-animation-fast{stroke-dasharray:9,5!important;stroke-dashoffset:900;animation:dash 20s linear infinite;stroke-linecap:round;}#my-svg .error-icon{fill:#552222;}#my-svg .error-text{fill:#552222;stroke:#552222;}#my-svg .edge-thickness-normal{stroke-width:1px;}#my-svg .edge-thickness-thick{stroke-width:3.5px;}#my-svg .edge-pattern-solid{stroke-dasharray:0;}#my-svg .edge-thickness-invisible{stroke-width:0;fill:none;}#my-svg .edge-pattern-dashed{stroke-dasharray:3;}#my-svg .edge-pattern-dotted{stroke-dasharray:2;}#my-svg .marker{fill:#333333;stroke:#333333;}#my-svg .marker.cross{stroke:#333333;}#my-svg svg{font-family:"trebuchet ms",verdana,arial,sans-serif;font-size:16px;}#my-svg p{margin:0;}#my-svg .label{font-family:"trebuchet ms",verdana,arial,sans-serif;color:#333;}#my-svg .cluster-label text{fill:#333;}#my-svg .cluster-label span{color:#333;}#my-svg .cluster-label span p{background-color:transparent;}#my-svg .label text,#my-svg span{fill:#333;color:#333;}#my-svg .node rect,#my-svg .node circle,#my-svg .node ellipse,#my-svg .node polygon,#my-svg .node path{fill:#ECECFF;stroke:#9370DB;stroke-width:1px;}#my-svg .rough-node .label text,#my-svg .node .label text,#my-svg .image-shape .label,#my-svg .icon-shape .label{text-anchor:middle;}#my-svg .node .katex path{fill:#000;stroke:#000;stroke-width:1px;}#my-svg .rough-node .label,#my-svg .node .label,#my-svg .image-shape .label,#my-svg .icon-shape .label{text-align:center;}#my-svg .node.clickable{cursor:pointer;}#my-svg .root .anchor path{fill:#333333!important;stroke-width:0;stroke:#333333;}#my-svg .arrowheadPath{fill:#333333;}#my-svg .edgePath .path{stroke:#333333;stroke-width:2.0px;}#my-svg .flowchart-link{stroke:#333333;fill:none;}#my-svg .edgeLabel{background-color:rgba(232,232,232, 0.8);text-align:center;}#my-svg .edgeLabel p{background-color:rgba(232,232,232, 0.8);}#my-svg .edgeLabel rect{opacity:0.5;background-color:rgba(232,232,232, 0.8);fill:rgba(232,232,232, 0.8);}#my-svg .labelBkg{background-color:rgba(232, 232, 232, 0.5);}#my-svg .cluster rect{fill:#ffffde;stroke:#aaaa33;stroke-width:1px;}#my-svg .cluster text{fill:#333;}#my-svg .cluster span{color:#333;}#my-svg div.mermaidTooltip{position:absolute;text-align:center;max-width:200px;padding:2px;font-family:"trebuchet ms",verdana,arial,sans-serif;font-size:12px;background:hsl(80, 100%, 96.2745098039%);border:1px solid #aaaa33;border-radius:2px;pointer-events:none;z-index:100;}#my-svg .flowchartTitleText{text-anchor:middle;font-size:18px;fill:#333;}#my-svg rect.text{fill:none;stroke-width:0;}#my-svg .icon-shape,#my-svg .image-shape{background-color:rgba(232,232,232, 0.8);text-align:center;}#my-svg .icon-shape p,#my-svg .image-shape p{background-color:rgba(232,232,232, 0.8);padding:2px;}#my-svg .icon-shape rect,#my-svg .image-shape rect{opacity:0.5;background-color:rgba(232,232,232, 0.8);fill:rgba(232,232,232, 0.8);}#my-svg .label-icon{display:inline-block;height:1em;overflow:visible;vertical-align:-0.125em;}#my-svg .node .label-icon path{fill:currentColor;stroke:revert;stroke-width:revert;}#my-svg :root{--mermaid-font-family:"trebuchet ms",verdana,arial,sans-serif;}</style><g><marker id="my-svg_flowchart-v2-pointEnd" class="marker flowchart-v2" viewBox="0 0 10 10" refX="5" refY="5" markerUnits="userSpaceOnUse" markerWidth="8" markerHeight="8" orient="auto"><path d="M 0 0 L 10 5 L 0 10 z" class="arrowMarkerPath" style="stroke-width: 1; stroke-dasharray: 1, 0;"/></marker><marker id="my-svg_flowchart-v2-pointStart" class="marker flowchart-v2" viewBox="0 0 10 10" refX="4.5" refY="5" markerUnits="userSpaceOnUse" markerWidth="8" markerHeight="8" orient="auto"><path d="M 0 5 L 10 10 L 10 0 z" class="arrowMarkerPath" style="stroke-width: 1; stroke-dasharray: 1, 0;"/></marker><marker id="my-svg_flowchart-v2-circleEnd" class="marker flowchart-v2" viewBox="0 0 10 10" refX="11" refY="5" markerUnits="userSpaceOnUse" markerWidth="11" markerHeight="11" orient="auto"><circle cx="5" cy="5" r="5" class="arrowMarkerPath" style="stroke-width: 1; stroke-dasharray: 1, 0;"/></marker><marker id="my-svg_flowchart-v2-circleStart" class="marker flowchart-v2" viewBox="0 0 10 10" refX="-1" refY="5" markerUnits="userSpaceOnUse" markerWidth="11" markerHeight="11" orient="auto"><circle cx="5" cy="5" r="5" class="arrowMarkerPath" style="stroke-width: 1; stroke-dasharray: 1, 0;"/></marker><marker id="my-svg_flowchart-v2-crossEnd" class="marker cross flowchart-v2" viewBox="0 0 11 11" refX="12" refY="5.2" markerUnits="userSpaceOnUse" markerWidth="11" markerHeight="11" orient="auto"><path d="M 1,1 l 9,9 M 10,1 l -9,9" class="arrowMarkerPath" style="stroke-width: 2; stroke-dasharray: 1, 0;"/></marker><marker id="my-svg_flowchart-v2-crossStart" class="marker cross flowchart-v2" viewBox="0 0 11 11" refX="-1" refY="5.2" markerUnits="userSpaceOnUse" markerWidth="11" markerHeight="11" orient="auto"><path d="M 1,1 l 9,9 M 10,1 l -9,9" class="arrowMarkerPath" style="stroke-width: 2; stroke-dasharray: 1, 0;"/></marker><g class="root"><g class="clusters"><g class="cluster" id="waste" data-look="classic"><rect style="" x="462.640625" y="633" width="644.34375" height="452"/><g class="cluster-label" transform="translate(684.8125, 633)"><foreignObject width="200" height="48"><div xmlns="http://www.w3.org/1999/xhtml" style="display: table; white-space: break-spaces; line-height: 1.5; max-width: 200px; text-align: center; width: 200px;"><span class="nodeLabel"><p>waste collection / shared property domain</p></span></div></foreignObject></g></g><g class="cluster" id="maps" data-look="classic"><rect style="" x="462.640625" y="292" width="644.34375" height="321"/><g class="cluster-label" transform="translate(762.8671875, 292)"><foreignObject width="43.890625" height="24"><div xmlns="http://www.w3.org/1999/xhtml" style="display: table-cell; white-space: nowrap; line-height: 1.5; max-width: 200px; text-align: center;"><span class="nodeLabel"><p>maps</p></span></div></foreignObject></g></g><g class="cluster" id="materials" data-look="classic"><rect style="" x="462.640625" y="8" width="644.34375" height="264"/><g class="cluster-label" transform="translate(747.25, 8)"><foreignObject width="75.125" height="24"><div xmlns="http://www.w3.org/1999/xhtml" style="display: table-cell; white-space: nowrap; line-height: 1.5; max-width: 200px; text-align: center;"><span class="nodeLabel"><p>materials</p></span></div></foreignObject></g></g><g class="cluster" id="shared" data-look="classic"><rect style="" x="8" y="19" width="404.640625" height="1054"/><g class="cluster-label" transform="translate(110.3203125, 19)"><foreignObject width="200" height="48"><div xmlns="http://www.w3.org/1999/xhtml" style="display: table; white-space: break-spaces; line-height: 1.5; max-width: 200px; text-align: center; width: 200px;"><span class="nodeLabel"><p>utils.properties abstract models and mixins</p></span></div></foreignObject></g></g></g><g class="edgePaths"><path d="M260.9,223L286.19,197.5C311.48,172,362.061,121,391.517,95.5C420.974,70,429.307,70,437.641,70C445.974,70,454.307,70,462.582,70C470.857,70,479.073,70,483.181,70L487.289,70" id="L_PB_MP_0" class="edge-thickness-normal edge-pattern-solid edge-thickness-normal edge-pattern-solid flowchart-link" style=";" data-edge="true" data-et="edge" data-id="L_PB_MP_0" data-points="W3sieCI6MjYwLjkwMDM5MDYyNSwieSI6MjIzfSx7IngiOjQxMi42NDA2MjUsInkiOjcwfSx7IngiOjQzNy42NDA2MjUsInkiOjcwfSx7IngiOjQ2Mi42NDA2MjUsInkiOjcwfSx7IngiOjQ5MS4yODkwNjI1LCJ5Ijo3MH1d" marker-end="url(#my-svg_flowchart-v2-pointEnd)"/><path d="M340.32,272.715L352.374,272.596C364.427,272.477,388.534,272.238,404.754,272.119C420.974,272,429.307,272,437.641,294.333C445.974,316.667,454.307,361.333,467.753,383.667C481.198,406,499.755,406,509.034,406L518.313,406" id="L_PB_A_0" class="edge-thickness-normal edge-pattern-solid edge-thickness-normal edge-pattern-solid flowchart-link" style=";" data-edge="true" data-et="edge" data-id="L_PB_A_0" data-points="W3sieCI6MzQwLjMyMDMxMjUsInkiOjI3Mi43MTQ5MDkwNjI4MjU4fSx7IngiOjQxMi42NDA2MjUsInkiOjI3Mn0seyJ4Ijo0MzcuNjQwNjI1LCJ5IjoyNzJ9LHsieCI6NDYyLjY0MDYyNSwieSI6NDA2fSx7IngiOjUyMi4zMTI1LCJ5Ijo0MDZ9XQ==" marker-end="url(#my-svg_flowchart-v2-pointEnd)"/><path d="M276.042,325L298.809,342.667C321.575,360.333,367.108,395.667,394.041,413.333C420.974,431,429.307,431,437.641,475C445.974,519,454.307,607,467.999,651C481.69,695,500.74,695,510.264,695L519.789,695" id="L_PB_P_0" class="edge-thickness-normal edge-pattern-solid edge-thickness-normal edge-pattern-solid flowchart-link" style=";" data-edge="true" data-et="edge" data-id="L_PB_P_0" data-points="W3sieCI6Mjc2LjA0MjE5NzQ1MjIyOTMsInkiOjMyNX0seyJ4Ijo0MTIuNjQwNjI1LCJ5Ijo0MzF9LHsieCI6NDM3LjY0MDYyNSwieSI6NDMxfSx7IngiOjQ2Mi42NDA2MjUsInkiOjY5NX0seyJ4Ijo1MjMuNzg5MDYyNSwieSI6Njk1fV0=" marker-end="url(#my-svg_flowchart-v2-pointEnd)"/><path d="M683.992,70L688.767,70C693.542,70,703.091,70,732.437,84.331C761.782,98.662,810.923,127.323,835.494,141.654L860.065,155.985" id="L_MP_MPV_0" class="edge-thickness-normal edge-pattern-solid edge-thickness-normal edge-pattern-solid flowchart-link" style=";" data-edge="true" data-et="edge" data-id="L_MP_MPV_0" data-points="W3sieCI6NjgzLjk5MjE4NzUsInkiOjcwfSx7IngiOjcxMi42NDA2MjUsInkiOjcwfSx7IngiOjg2My41MTk5NzI4MjYwODY5LCJ5IjoxNTh9XQ==" marker-end="url(#my-svg_flowchart-v2-pointEnd)"/><path d="M652.969,395.025L662.914,393.354C672.859,391.683,692.75,388.342,725.906,398.207C759.063,408.073,805.485,431.146,828.697,442.683L851.908,454.22" id="L_A_RAV_0" class="edge-thickness-normal edge-pattern-solid edge-thickness-normal edge-pattern-solid flowchart-link" style=";" data-edge="true" data-et="edge" data-id="L_A_RAV_0" data-points="W3sieCI6NjUyLjk2ODc1LCJ5IjozOTUuMDI0ODc1fSx7IngiOjcxMi42NDA2MjUsInkiOjM4NX0seyJ4Ijo4NTUuNDg5NjM2NDc5NTkxOCwieSI6NDU2fV0=" marker-end="url(#my-svg_flowchart-v2-pointEnd)"/><path d="M652.969,423.247L662.914,425.872C672.859,428.498,692.75,433.749,724.507,426.972C756.263,420.195,799.886,401.389,821.697,391.986L843.508,382.584" id="L_A_RATV_0" class="edge-thickness-normal edge-pattern-solid edge-thickness-normal edge-pattern-solid flowchart-link" style=";" data-edge="true" data-et="edge" data-id="L_A_RATV_0" data-points="W3sieCI6NjUyLjk2ODc1LCJ5Ijo0MjMuMjQ2NjI1fSx7IngiOjcxMi42NDA2MjUsInkiOjQzOX0seyJ4Ijo4NDcuMTgxNDMzODIzNTI5NSwieSI6MzgxfV0=" marker-end="url(#my-svg_flowchart-v2-pointEnd)"/><path d="M651.492,684.273L661.684,682.561C671.875,680.849,692.258,677.424,728.035,692.841C763.813,708.258,814.986,742.517,840.572,759.646L866.158,776.775" id="L_P_CPV_0" class="edge-thickness-normal edge-pattern-solid edge-thickness-normal edge-pattern-solid flowchart-link" style=";" data-edge="true" data-et="edge" data-id="L_P_CPV_0" data-points="W3sieCI6NjUxLjQ5MjE4NzUsInkiOjY4NC4yNzI5Mzc1fSx7IngiOjcxMi42NDA2MjUsInkiOjY3NH0seyJ4Ijo4NjkuNDgxODg5MjA0NTQ1NSwieSI6Nzc5fV0=" marker-end="url(#my-svg_flowchart-v2-pointEnd)"/><path d="M651.492,721.562L661.684,725.802C671.875,730.041,692.258,738.521,729.681,766.654C767.105,794.787,821.569,842.575,848.801,866.468L876.033,890.362" id="L_P_ACPV_0" class="edge-thickness-normal edge-pattern-solid edge-thickness-normal edge-pattern-solid flowchart-link" style=";" data-edge="true" data-et="edge" data-id="L_P_ACPV_0" data-points="W3sieCI6NjUxLjQ5MjE4NzUsInkiOjcyMS41NjIyNX0seyJ4Ijo3MTIuNjQwNjI1LCJ5Ijo3NDd9LHsieCI6ODc5LjA0MDAxMDgzODE1MDIsInkiOjg5M31d" marker-end="url(#my-svg_flowchart-v2-pointEnd)"/><path d="M305.386,495L323.262,487.667C341.138,480.333,376.889,465.667,398.932,458.333C420.974,451,429.307,451,437.641,401.833C445.974,352.667,454.307,254.333,479.307,205.167C504.307,156,545.974,156,587.641,156C629.307,156,670.974,156,704.29,157.836C737.605,159.672,762.57,163.344,775.052,165.18L787.535,167.015" id="L_NM_MPV_0" class="edge-thickness-normal edge-pattern-dotted edge-thickness-normal edge-pattern-solid flowchart-link" style=";" data-edge="true" data-et="edge" data-id="L_NM_MPV_0" data-points="W3sieCI6MzA1LjM4NjQ4MzQzMzczNDk1LCJ5Ijo0OTV9LHsieCI6NDEyLjY0MDYyNSwieSI6NDUxfSx7IngiOjQzNy42NDA2MjUsInkiOjQ1MX0seyJ4Ijo0NjIuNjQwNjI1LCJ5IjoxNTZ9LHsieCI6NTg3LjY0MDYyNSwieSI6MTU2fSx7IngiOjcxMi42NDA2MjUsInkiOjE1Nn0seyJ4Ijo3OTEuNDkyMTg3NSwieSI6MTY3LjU5NzQ3MjA2NTkzMjMyfV0=" marker-end="url(#my-svg_flowchart-v2-pointEnd)"/><path d="M387.641,505.078L391.807,504.398C395.974,503.718,404.307,502.359,412.641,501.68C420.974,501,429.307,501,437.641,500.333C445.974,499.667,454.307,498.333,479.307,497.667C504.307,497,545.974,497,587.641,497C629.307,497,670.974,497,704.891,496.071C738.808,495.142,764.975,493.284,778.059,492.355L791.143,491.426" id="L_NM_RAV_0" class="edge-thickness-normal edge-pattern-dotted edge-thickness-normal edge-pattern-solid flowchart-link" style=";" data-edge="true" data-et="edge" data-id="L_NM_RAV_0" data-points="W3sieCI6Mzg3LjY0MDYyNSwieSI6NTA1LjA3NzY5MjM5NjgwMjd9LHsieCI6NDEyLjY0MDYyNSwieSI6NTAxfSx7IngiOjQzNy42NDA2MjUsInkiOjUwMX0seyJ4Ijo0NjIuNjQwNjI1LCJ5Ijo0OTd9LHsieCI6NTg3LjY0MDYyNSwieSI6NDk3fSx7IngiOjcxMi42NDA2MjUsInkiOjQ5N30seyJ4Ijo3OTUuMTMyODEyNSwieSI6NDkxLjE0MjcyMTI5MzI4Nzl9XQ==" marker-end="url(#my-svg_flowchart-v2-pointEnd)"/><path d="M387.641,534L391.807,534C395.974,534,404.307,534,412.641,534C420.974,534,429.307,534,437.641,578.333C445.974,622.667,454.307,711.333,479.307,755.667C504.307,800,545.974,800,587.641,800C629.307,800,670.974,800,703.104,800.344C735.235,800.688,757.829,801.375,769.127,801.719L780.424,802.063" id="L_NM_CPV_0" class="edge-thickness-normal edge-pattern-dotted edge-thickness-normal edge-pattern-solid flowchart-link" style=";" data-edge="true" data-et="edge" data-id="L_NM_CPV_0" data-points="W3sieCI6Mzg3LjY0MDYyNSwieSI6NTM0fSx7IngiOjQxMi42NDA2MjUsInkiOjUzNH0seyJ4Ijo0MzcuNjQwNjI1LCJ5Ijo1MzR9LHsieCI6NDYyLjY0MDYyNSwieSI6ODAwfSx7IngiOjU4Ny42NDA2MjUsInkiOjgwMH0seyJ4Ijo3MTIuNjQwNjI1LCJ5Ijo4MDB9LHsieCI6Nzg0LjQyMTg3NSwieSI6ODAyLjE4NDMyNTIyMzg2ODh9XQ==" marker-end="url(#my-svg_flowchart-v2-pointEnd)"/><path d="M337.586,573L350.095,576.833C362.604,580.667,387.623,588.333,404.298,592.167C420.974,596,429.307,596,437.641,643.667C445.974,691.333,454.307,786.667,479.307,834.333C504.307,882,545.974,882,587.641,882C629.307,882,670.974,882,700.665,883.707C730.357,885.414,748.073,888.829,756.931,890.536L765.789,892.243" id="L_NM_ACPV_0" class="edge-thickness-normal edge-pattern-dotted edge-thickness-normal edge-pattern-solid flowchart-link" style=";" data-edge="true" data-et="edge" data-id="L_NM_ACPV_0" data-points="W3sieCI6MzM3LjU4NjMxNTUyNDE5MzU0LCJ5Ijo1NzN9LHsieCI6NDEyLjY0MDYyNSwieSI6NTk2fSx7IngiOjQzNy42NDA2MjUsInkiOjU5Nn0seyJ4Ijo0NjIuNjQwNjI1LCJ5Ijo4ODJ9LHsieCI6NTg3LjY0MDYyNSwieSI6ODgyfSx7IngiOjcxMi42NDA2MjUsInkiOjg4Mn0seyJ4Ijo3NjkuNzE2Njk0MDc4OTQ3NCwieSI6ODkzfV0=" marker-end="url(#my-svg_flowchart-v2-pointEnd)"/><path d="M243.605,875L271.778,831.833C299.95,788.667,356.296,702.333,388.635,659.167C420.974,616,429.307,616,437.641,550.667C445.974,485.333,454.307,354.667,479.307,289.333C504.307,224,545.974,224,587.641,224C629.307,224,670.974,224,704.295,221.53C737.616,219.06,762.592,214.12,775.08,211.65L787.568,209.18" id="L_UX_MPV_0" class="edge-thickness-normal edge-pattern-dotted edge-thickness-normal edge-pattern-solid flowchart-link" style=";" data-edge="true" data-et="edge" data-id="L_UX_MPV_0" data-points="W3sieCI6MjQzLjYwNTI2NzEzNzA5Njc3LCJ5Ijo4NzV9LHsieCI6NDEyLjY0MDYyNSwieSI6NjE2fSx7IngiOjQzNy42NDA2MjUsInkiOjYxNn0seyJ4Ijo0NjIuNjQwNjI1LCJ5IjoyMjR9LHsieCI6NTg3LjY0MDYyNSwieSI6MjI0fSx7IngiOjcxMi42NDA2MjUsInkiOjIyNH0seyJ4Ijo3OTEuNDkyMTg3NSwieSI6MjA4LjQwMzM5OTYzNTQ3MDMyfV0=" marker-end="url(#my-svg_flowchart-v2-pointEnd)"/><path d="M286.752,875L307.734,861C328.715,847,370.678,819,395.826,805C420.974,791,429.307,791,437.641,753.333C445.974,715.667,454.307,640.333,479.307,602.667C504.307,565,545.974,565,587.641,565C629.307,565,670.974,565,713.233,556.089C755.493,547.179,798.345,529.357,819.771,520.447L841.197,511.536" id="L_UX_RAV_0" class="edge-thickness-normal edge-pattern-dotted edge-thickness-normal edge-pattern-solid flowchart-link" style=";" data-edge="true" data-et="edge" data-id="L_UX_RAV_0" data-points="W3sieCI6Mjg2Ljc1MjQzMDU1NTU1NTUsInkiOjg3NX0seyJ4Ijo0MTIuNjQwNjI1LCJ5Ijo3OTF9LHsieCI6NDM3LjY0MDYyNSwieSI6NzkxfSx7IngiOjQ2Mi42NDA2MjUsInkiOjU2NX0seyJ4Ijo1ODcuNjQwNjI1LCJ5Ijo1NjV9LHsieCI6NzEyLjY0MDYyNSwieSI6NTY1fSx7IngiOjg0NC44OTAwNTMzNTM2NTg2LCJ5Ijo1MTB9XQ==" marker-end="url(#my-svg_flowchart-v2-pointEnd)"/><path d="M340.32,941.421L352.374,942.851C364.427,944.281,388.534,947.14,404.754,948.57C420.974,950,429.307,950,437.641,950C445.974,950,454.307,950,479.307,950C504.307,950,545.974,950,587.641,950C629.307,950,670.974,950,717.969,930.893C764.965,911.786,817.289,873.573,843.451,854.466L869.613,835.359" id="L_UX_CPV_0" class="edge-thickness-normal edge-pattern-dotted edge-thickness-normal edge-pattern-solid flowchart-link" style=";" data-edge="true" data-et="edge" data-id="L_UX_CPV_0" data-points="W3sieCI6MzQwLjMyMDMxMjUsInkiOjk0MS40MjEwOTEyNDYwOTAzfSx7IngiOjQxMi42NDA2MjUsInkiOjk1MH0seyJ4Ijo0MzcuNjQwNjI1LCJ5Ijo5NTB9LHsieCI6NDYyLjY0MDYyNSwieSI6OTUwfSx7IngiOjU4Ny42NDA2MjUsInkiOjk1MH0seyJ4Ijo3MTIuNjQwNjI1LCJ5Ijo5NTB9LHsieCI6ODcyLjg0Mjc3MzQzNzUsInkiOjgzM31d" marker-end="url(#my-svg_flowchart-v2-pointEnd)"/><path d="M307.663,977L325.159,986.167C342.656,995.333,377.648,1013.667,399.311,1022.833C420.974,1032,429.307,1032,437.641,1032C445.974,1032,454.307,1032,479.307,1032C504.307,1032,545.974,1032,587.641,1032C629.307,1032,670.974,1032,716.168,1018.163C761.361,1004.325,810.082,976.65,834.442,962.813L858.802,948.976" id="L_UX_ACPV_0" class="edge-thickness-normal edge-pattern-dotted edge-thickness-normal edge-pattern-solid flowchart-link" style=";" data-edge="true" data-et="edge" data-id="L_UX_ACPV_0" data-points="W3sieCI6MzA3LjY2MzEwNDM2MzIwNzU0LCJ5Ijo5Nzd9LHsieCI6NDEyLjY0MDYyNSwieSI6MTAzMn0seyJ4Ijo0MzcuNjQwNjI1LCJ5IjoxMDMyfSx7IngiOjQ2Mi42NDA2MjUsInkiOjEwMzJ9LHsieCI6NTg3LjY0MDYyNSwieSI6MTAzMn0seyJ4Ijo3MTIuNjQwNjI1LCJ5IjoxMDMyfSx7IngiOjg2Mi4yNzk5OTQ0MTk2NDI5LCJ5Ijo5NDd9XQ==" marker-end="url(#my-svg_flowchart-v2-pointEnd)"/><path d="M952.064,158L977.884,141.5C1003.704,125,1055.344,92,1101.998,75.5C1148.651,59,1190.318,59,1239.908,148.199C1289.499,237.398,1347.014,415.795,1375.771,504.994L1404.529,594.193" id="L_MPV_U_0" class="edge-thickness-normal edge-pattern-solid edge-thickness-normal edge-pattern-solid flowchart-link" style=";" data-edge="true" data-et="edge" data-id="L_MPV_U_0" data-points="W3sieCI6OTUyLjA2MzYxNjA3MTQyODYsInkiOjE1OH0seyJ4IjoxMTA2Ljk4NDM3NSwieSI6NTl9LHsieCI6MTIzMS45ODQzNzUsInkiOjU5fSx7IngiOjE0MDUuNzU2MjI1MTU0NTkzNywieSI6NTk4fV0=" marker-end="url(#my-svg_flowchart-v2-pointEnd)"/><path d="M970.308,456L993.088,445.833C1015.867,435.667,1061.426,415.333,1105.038,405.167C1148.651,395,1190.318,395,1237.579,428.311C1284.841,461.622,1337.697,528.244,1364.125,561.555L1390.554,594.866" id="L_RAV_U_0" class="edge-thickness-normal edge-pattern-solid edge-thickness-normal edge-pattern-solid flowchart-link" style=";" data-edge="true" data-et="edge" data-id="L_RAV_U_0" data-points="W3sieCI6OTcwLjMwODQxNjE5MzE4MTksInkiOjQ1Nn0seyJ4IjoxMTA2Ljk4NDM3NSwieSI6Mzk1fSx7IngiOjEyMzEuOTg0Mzc1LCJ5IjozOTV9LHsieCI6MTM5My4wMzk3NzU4MTUyMTc0LCJ5Ijo1OTh9XQ==" marker-end="url(#my-svg_flowchart-v2-pointEnd)"/><path d="M953.449,779L979.038,763.167C1004.627,747.333,1055.806,715.667,1102.228,699.833C1148.651,684,1190.318,684,1233.215,676.866C1276.112,669.732,1320.239,655.465,1342.302,648.331L1364.366,641.197" id="L_CPV_U_0" class="edge-thickness-normal edge-pattern-solid edge-thickness-normal edge-pattern-solid flowchart-link" style=";" data-edge="true" data-et="edge" data-id="L_CPV_U_0" data-points="W3sieCI6OTUzLjQ0ODg5ODU2NTU3MzgsInkiOjc3OX0seyJ4IjoxMTA2Ljk4NDM3NSwieSI6Njg0fSx7IngiOjEyMzEuOTg0Mzc1LCJ5Ijo2ODR9LHsieCI6MTM2OC4xNzE4NzUsInkiOjYzOS45NjY2MDUzMDAzMzgyfV0=" marker-end="url(#my-svg_flowchart-v2-pointEnd)"/><path d="M1012.19,893L1027.989,888.833C1043.788,884.667,1075.386,876.333,1112.019,872.167C1148.651,868,1190.318,868,1237.784,832.533C1285.251,797.066,1338.517,726.132,1365.151,690.665L1391.784,655.199" id="L_ACPV_U_0" class="edge-thickness-normal edge-pattern-solid edge-thickness-normal edge-pattern-solid flowchart-link" style=";" data-edge="true" data-et="edge" data-id="L_ACPV_U_0" data-points="W3sieCI6MTAxMi4xOTAyMDQzMjY5MjMxLCJ5Ijo4OTN9LHsieCI6MTEwNi45ODQzNzUsInkiOjg2OH0seyJ4IjoxMjMxLjk4NDM3NSwieSI6ODY4fSx7IngiOjEzOTQuMTg1NzYzODg4ODg5LCJ5Ijo2NTJ9XQ==" marker-end="url(#my-svg_flowchart-v2-pointEnd)"/><path d="M1025.544,212L1039.117,215.167C1052.691,218.333,1079.838,224.667,1114.244,227.833C1148.651,231,1190.318,231,1239.693,309.207C1289.068,387.414,1346.152,543.828,1374.694,622.035L1403.236,700.242" id="L_MPV_S_0" class="edge-thickness-normal edge-pattern-solid edge-thickness-normal edge-pattern-solid flowchart-link" style=";" data-edge="true" data-et="edge" data-id="L_MPV_S_0" data-points="W3sieCI6MTAyNS41NDM4MTc5MzQ3ODI1LCJ5IjoyMTJ9LHsieCI6MTEwNi45ODQzNzUsInkiOjIzMX0seyJ4IjoxMjMxLjk4NDM3NSwieSI6MjMxfSx7IngiOjE0MDQuNjA3MjAzMTI1LCJ5Ijo3MDR9XQ==" marker-end="url(#my-svg_flowchart-v2-pointEnd)"/><path d="M1035.203,832.71L1047.167,835.258C1059.13,837.806,1083.057,842.903,1115.854,845.452C1148.651,848,1190.318,848,1233.984,833.36C1277.651,818.72,1323.317,789.439,1346.15,774.799L1368.984,760.159" id="L_CPV_S_0" class="edge-thickness-normal edge-pattern-solid edge-thickness-normal edge-pattern-solid flowchart-link" style=";" data-edge="true" data-et="edge" data-id="L_CPV_S_0" data-points="W3sieCI6MTAzNS4yMDMxMjUsInkiOjgzMi43MDk3MjM0MzI5MTg2fSx7IngiOjExMDYuOTg0Mzc1LCJ5Ijo4NDh9LHsieCI6MTIzMS45ODQzNzUsInkiOjg0OH0seyJ4IjoxMzcyLjM1MDk2MTUzODQ2MTQsInkiOjc1OH1d" marker-end="url(#my-svg_flowchart-v2-pointEnd)"/><path d="M952.745,947L978.452,963.167C1004.158,979.333,1055.571,1011.667,1102.111,1027.833C1148.651,1044,1190.318,1044,1238.605,996.909C1286.891,949.819,1341.798,855.637,1369.252,808.546L1396.706,761.456" id="L_ACPV_S_0" class="edge-thickness-normal edge-pattern-solid edge-thickness-normal edge-pattern-solid flowchart-link" style=";" data-edge="true" data-et="edge" data-id="L_ACPV_S_0" data-points="W3sieCI6OTUyLjc0NTA4NTY4NTQ4MzksInkiOjk0N30seyJ4IjoxMTA2Ljk4NDM3NSwieSI6MTA0NH0seyJ4IjoxMjMxLjk4NDM3NSwieSI6MTA0NH0seyJ4IjoxMzk4LjcyMDE0Nzc2MzU3ODMsInkiOjc1OH1d" marker-end="url(#my-svg_flowchart-v2-pointEnd)"/><path d="M969.629,510L992.521,520.333C1015.414,530.667,1061.199,551.333,1104.925,561.667C1148.651,572,1190.318,572,1235.897,593.562C1281.476,615.124,1330.967,658.248,1355.713,679.81L1380.459,701.372" id="L_RAV_S_0" class="edge-thickness-normal edge-pattern-dotted edge-thickness-normal edge-pattern-solid flowchart-link" style=";" data-edge="true" data-et="edge" data-id="L_RAV_S_0" data-points="W3sieCI6OTY5LjYyODY4Njc5Nzc1MjgsInkiOjUxMH0seyJ4IjoxMTA2Ljk4NDM3NSwieSI6NTcyfSx7IngiOjEyMzEuOTg0Mzc1LCJ5Ijo1NzJ9LHsieCI6MTM4My40NzQzNTE0MTUwOTQ0LCJ5Ijo3MDR9XQ==" marker-end="url(#my-svg_flowchart-v2-pointEnd)"/></g><g class="edgeLabels"><g class="edgeLabel"><g class="label" data-id="L_PB_MP_0" transform="translate(0, 0)"><foreignObject width="0" height="0"><div xmlns="http://www.w3.org/1999/xhtml" class="labelBkg" style="display: table-cell; white-space: nowrap; line-height: 1.5; max-width: 200px; text-align: center;"><span class="edgeLabel"></span></div></foreignObject></g></g><g class="edgeLabel"><g class="label" data-id="L_PB_A_0" transform="translate(0, 0)"><foreignObject width="0" height="0"><div xmlns="http://www.w3.org/1999/xhtml" class="labelBkg" style="display: table-cell; white-space: nowrap; line-height: 1.5; max-width: 200px; text-align: center;"><span class="edgeLabel"></span></div></foreignObject></g></g><g class="edgeLabel"><g class="label" data-id="L_PB_P_0" transform="translate(0, 0)"><foreignObject width="0" height="0"><div xmlns="http://www.w3.org/1999/xhtml" class="labelBkg" style="display: table-cell; white-space: nowrap; line-height: 1.5; max-width: 200px; text-align: center;"><span class="edgeLabel"></span></div></foreignObject></g></g><g class="edgeLabel"><g class="label" data-id="L_MP_MPV_0" transform="translate(0, 0)"><foreignObject width="0" height="0"><div xmlns="http://www.w3.org/1999/xhtml" class="labelBkg" style="display: table-cell; white-space: nowrap; line-height: 1.5; max-width: 200px; text-align: center;"><span class="edgeLabel"></span></div></foreignObject></g></g><g class="edgeLabel"><g class="label" data-id="L_A_RAV_0" transform="translate(0, 0)"><foreignObject width="0" height="0"><div xmlns="http://www.w3.org/1999/xhtml" class="labelBkg" style="display: table-cell; white-space: nowrap; line-height: 1.5; max-width: 200px; text-align: center;"><span class="edgeLabel"></span></div></foreignObject></g></g><g class="edgeLabel"><g class="label" data-id="L_A_RATV_0" transform="translate(0, 0)"><foreignObject width="0" height="0"><div xmlns="http://www.w3.org/1999/xhtml" class="labelBkg" style="display: table-cell; white-space: nowrap; line-height: 1.5; max-width: 200px; text-align: center;"><span class="edgeLabel"></span></div></foreignObject></g></g><g class="edgeLabel"><g class="label" data-id="L_P_CPV_0" transform="translate(0, 0)"><foreignObject width="0" height="0"><div xmlns="http://www.w3.org/1999/xhtml" class="labelBkg" style="display: table-cell; white-space: nowrap; line-height: 1.5; max-width: 200px; text-align: center;"><span class="edgeLabel"></span></div></foreignObject></g></g><g class="edgeLabel"><g class="label" data-id="L_P_ACPV_0" transform="translate(0, 0)"><foreignObject width="0" height="0"><div xmlns="http://www.w3.org/1999/xhtml" class="labelBkg" style="display: table-cell; white-space: nowrap; line-height: 1.5; max-width: 200px; text-align: center;"><span class="edgeLabel"></span></div></foreignObject></g></g><g class="edgeLabel" transform="translate(587.640625, 156)"><g class="label" data-id="L_NM_MPV_0" transform="translate(-100, -24)"><foreignObject width="200" height="48"><div xmlns="http://www.w3.org/1999/xhtml" class="labelBkg" style="display: table; white-space: break-spaces; line-height: 1.5; max-width: 200px; text-align: center; width: 200px;"><span class="edgeLabel"><p>shared numeric behavior</p></span></div></foreignObject></g></g><g class="edgeLabel" transform="translate(587.640625, 497)"><g class="label" data-id="L_NM_RAV_0" transform="translate(-100, -24)"><foreignObject width="200" height="48"><div xmlns="http://www.w3.org/1999/xhtml" class="labelBkg" style="display: table; white-space: break-spaces; line-height: 1.5; max-width: 200px; text-align: center; width: 200px;"><span class="edgeLabel"><p>shared numeric behavior</p></span></div></foreignObject></g></g><g class="edgeLabel" transform="translate(587.640625, 800)"><g class="label" data-id="L_NM_CPV_0" transform="translate(-100, -24)"><foreignObject width="200" height="48"><div xmlns="http://www.w3.org/1999/xhtml" class="labelBkg" style="display: table; white-space: break-spaces; line-height: 1.5; max-width: 200px; text-align: center; width: 200px;"><span class="edgeLabel"><p>shared numeric behavior</p></span></div></foreignObject></g></g><g class="edgeLabel" transform="translate(587.640625, 882)"><g class="label" data-id="L_NM_ACPV_0" transform="translate(-100, -24)"><foreignObject width="200" height="48"><div xmlns="http://www.w3.org/1999/xhtml" class="labelBkg" style="display: table; white-space: break-spaces; line-height: 1.5; max-width: 200px; text-align: center; width: 200px;"><span class="edgeLabel"><p>shared numeric behavior</p></span></div></foreignObject></g></g><g class="edgeLabel" transform="translate(587.640625, 224)"><g class="label" data-id="L_UX_MPV_0" transform="translate(-100, -24)"><foreignObject width="200" height="48"><div xmlns="http://www.w3.org/1999/xhtml" class="labelBkg" style="display: table; white-space: break-spaces; line-height: 1.5; max-width: 200px; text-align: center; width: 200px;"><span class="edgeLabel"><p>shared UI / API / query helpers</p></span></div></foreignObject></g></g><g class="edgeLabel" transform="translate(587.640625, 565)"><g class="label" data-id="L_UX_RAV_0" transform="translate(-100, -24)"><foreignObject width="200" height="48"><div xmlns="http://www.w3.org/1999/xhtml" class="labelBkg" style="display: table; white-space: break-spaces; line-height: 1.5; max-width: 200px; text-align: center; width: 200px;"><span class="edgeLabel"><p>shared UI / API / query helpers</p></span></div></foreignObject></g></g><g class="edgeLabel" transform="translate(587.640625, 950)"><g class="label" data-id="L_UX_CPV_0" transform="translate(-100, -24)"><foreignObject width="200" height="48"><div xmlns="http://www.w3.org/1999/xhtml" class="labelBkg" style="display: table; white-space: break-spaces; line-height: 1.5; max-width: 200px; text-align: center; width: 200px;"><span class="edgeLabel"><p>shared UI / API / query helpers</p></span></div></foreignObject></g></g><g class="edgeLabel" transform="translate(587.640625, 1032)"><g class="label" data-id="L_UX_ACPV_0" transform="translate(-100, -24)"><foreignObject width="200" height="48"><div xmlns="http://www.w3.org/1999/xhtml" class="labelBkg" style="display: table; white-space: break-spaces; line-height: 1.5; max-width: 200px; text-align: center; width: 200px;"><span class="edgeLabel"><p>shared UI / API / query helpers</p></span></div></foreignObject></g></g><g class="edgeLabel"><g class="label" data-id="L_MPV_U_0" transform="translate(0, 0)"><foreignObject width="0" height="0"><div xmlns="http://www.w3.org/1999/xhtml" class="labelBkg" style="display: table-cell; white-space: nowrap; line-height: 1.5; max-width: 200px; text-align: center;"><span class="edgeLabel"></span></div></foreignObject></g></g><g class="edgeLabel"><g class="label" data-id="L_RAV_U_0" transform="translate(0, 0)"><foreignObject width="0" height="0"><div xmlns="http://www.w3.org/1999/xhtml" class="labelBkg" style="display: table-cell; white-space: nowrap; line-height: 1.5; max-width: 200px; text-align: center;"><span class="edgeLabel"></span></div></foreignObject></g></g><g class="edgeLabel"><g class="label" data-id="L_CPV_U_0" transform="translate(0, 0)"><foreignObject width="0" height="0"><div xmlns="http://www.w3.org/1999/xhtml" class="labelBkg" style="display: table-cell; white-space: nowrap; line-height: 1.5; max-width: 200px; text-align: center;"><span class="edgeLabel"></span></div></foreignObject></g></g><g class="edgeLabel"><g class="label" data-id="L_ACPV_U_0" transform="translate(0, 0)"><foreignObject width="0" height="0"><div xmlns="http://www.w3.org/1999/xhtml" class="labelBkg" style="display: table-cell; white-space: nowrap; line-height: 1.5; max-width: 200px; text-align: center;"><span class="edgeLabel"></span></div></foreignObject></g></g><g class="edgeLabel"><g class="label" data-id="L_MPV_S_0" transform="translate(0, 0)"><foreignObject width="0" height="0"><div xmlns="http://www.w3.org/1999/xhtml" class="labelBkg" style="display: table-cell; white-space: nowrap; line-height: 1.5; max-width: 200px; text-align: center;"><span class="edgeLabel"></span></div></foreignObject></g></g><g class="edgeLabel"><g class="label" data-id="L_CPV_S_0" transform="translate(0, 0)"><foreignObject width="0" height="0"><div xmlns="http://www.w3.org/1999/xhtml" class="labelBkg" style="display: table-cell; white-space: nowrap; line-height: 1.5; max-width: 200px; text-align: center;"><span class="edgeLabel"></span></div></foreignObject></g></g><g class="edgeLabel"><g class="label" data-id="L_ACPV_S_0" transform="translate(0, 0)"><foreignObject width="0" height="0"><div xmlns="http://www.w3.org/1999/xhtml" class="labelBkg" style="display: table-cell; white-space: nowrap; line-height: 1.5; max-width: 200px; text-align: center;"><span class="edgeLabel"></span></div></foreignObject></g></g><g class="edgeLabel" transform="translate(1231.984375, 572)"><g class="label" data-id="L_RAV_S_0" transform="translate(-100, -24)"><foreignObject width="200" height="48"><div xmlns="http://www.w3.org/1999/xhtml" class="labelBkg" style="display: table; white-space: break-spaces; line-height: 1.5; max-width: 200px; text-align: center; width: 200px;"><span class="edgeLabel"><p>provenance policy if adopted</p></span></div></foreignObject></g></g></g><g class="nodes"><g class="node default" id="flowchart-PB-0" transform="translate(210.3203125, 274)"><rect class="basic label-container" style="" x="-130" y="-51" width="260" height="102"/><g class="label" style="" transform="translate(-100, -36)"><rect/><foreignObject width="200" height="72"><div xmlns="http://www.w3.org/1999/xhtml" style="display: table; white-space: break-spaces; line-height: 1.5; max-width: 200px; text-align: center; width: 200px;"><span class="nodeLabel"><p>PropertyBase\nshared abstract definition model</p></span></div></foreignObject></g></g><g class="node default" id="flowchart-NM-1" transform="translate(210.3203125, 534)"><rect class="basic label-container" style="" x="-177.3203125" y="-39" width="354.640625" height="78"/><g class="label" style="" transform="translate(-147.3203125, -24)"><rect/><foreignObject width="294.640625" height="48"><div xmlns="http://www.w3.org/1999/xhtml" style="display: table; white-space: break-spaces; line-height: 1.5; max-width: 200px; text-align: center; width: 200px;"><span class="nodeLabel"><p>NumericMeasurementMixin\nshared numeric behavior</p></span></div></foreignObject></g></g><g class="node default" id="flowchart-UX-2" transform="translate(210.3203125, 926)"><rect class="basic label-container" style="" x="-130" y="-51" width="260" height="102"/><g class="label" style="" transform="translate(-100, -36)"><rect/><foreignObject width="200" height="72"><div xmlns="http://www.w3.org/1999/xhtml" style="display: table; white-space: break-spaces; line-height: 1.5; max-width: 200px; text-align: center; width: 200px;"><span class="nodeLabel"><p>Numeric measurement helpers\nforms / serializers / queries</p></span></div></foreignObject></g></g><g class="node default" id="flowchart-MP-3" transform="translate(587.640625, 70)"><rect class="basic label-container" style="" x="-96.3515625" y="-27" width="192.703125" height="54"/><g class="label" style="" transform="translate(-66.3515625, -12)"><rect/><foreignObject width="132.703125" height="24"><div xmlns="http://www.w3.org/1999/xhtml" style="display: table-cell; white-space: nowrap; line-height: 1.5; max-width: 200px; text-align: center;"><span class="nodeLabel"><p>MaterialProperty</p></span></div></foreignObject></g></g><g class="node default" id="flowchart-MPV-4" transform="translate(909.8125, 185)"><rect class="basic label-container" style="" x="-118.3203125" y="-27" width="236.640625" height="54"/><g class="label" style="" transform="translate(-88.3203125, -12)"><rect/><foreignObject width="176.640625" height="24"><div xmlns="http://www.w3.org/1999/xhtml" style="display: table-cell; white-space: nowrap; line-height: 1.5; max-width: 200px; text-align: center;"><span class="nodeLabel"><p>MaterialPropertyValue</p></span></div></foreignObject></g></g><g class="node default" id="flowchart-A-5" transform="translate(587.640625, 406)"><rect class="basic label-container" style="" x="-65.328125" y="-27" width="130.65625" height="54"/><g class="label" style="" transform="translate(-35.328125, -12)"><rect/><foreignObject width="70.65625" height="24"><div xmlns="http://www.w3.org/1999/xhtml" style="display: table-cell; white-space: nowrap; line-height: 1.5; max-width: 200px; text-align: center;"><span class="nodeLabel"><p>Attribute</p></span></div></foreignObject></g></g><g class="node default" id="flowchart-RAV-6" transform="translate(909.8125, 483)"><rect class="basic label-container" style="" x="-114.6796875" y="-27" width="229.359375" height="54"/><g class="label" style="" transform="translate(-84.6796875, -12)"><rect/><foreignObject width="169.359375" height="24"><div xmlns="http://www.w3.org/1999/xhtml" style="display: table-cell; white-space: nowrap; line-height: 1.5; max-width: 200px; text-align: center;"><span class="nodeLabel"><p>RegionAttributeValue</p></span></div></foreignObject></g></g><g class="node default" id="flowchart-RATV-7" transform="translate(909.8125, 354)"><rect class="basic label-container" style="" x="-130.859375" y="-27" width="261.71875" height="54"/><g class="label" style="" transform="translate(-100.859375, -12)"><rect/><foreignObject width="201.71875" height="24"><div xmlns="http://www.w3.org/1999/xhtml" style="display: table; white-space: break-spaces; line-height: 1.5; max-width: 200px; text-align: center; width: 200px;"><span class="nodeLabel"><p>RegionAttributeTextValue</p></span></div></foreignObject></g></g><g class="node default" id="flowchart-P-8" transform="translate(587.640625, 695)"><rect class="basic label-container" style="" x="-63.8515625" y="-27" width="127.703125" height="54"/><g class="label" style="" transform="translate(-33.8515625, -12)"><rect/><foreignObject width="67.703125" height="24"><div xmlns="http://www.w3.org/1999/xhtml" style="display: table-cell; white-space: nowrap; line-height: 1.5; max-width: 200px; text-align: center;"><span class="nodeLabel"><p>Property</p></span></div></foreignObject></g></g><g class="node default" id="flowchart-CPV-9" transform="translate(909.8125, 806)"><rect class="basic label-container" style="" x="-125.390625" y="-27" width="250.78125" height="54"/><g class="label" style="" transform="translate(-95.390625, -12)"><rect/><foreignObject width="190.78125" height="24"><div xmlns="http://www.w3.org/1999/xhtml" style="display: table-cell; white-space: nowrap; line-height: 1.5; max-width: 200px; text-align: center;"><span class="nodeLabel"><p>CollectionPropertyValue</p></span></div></foreignObject></g></g><g class="node default" id="flowchart-ACPV-10" transform="translate(909.8125, 920)"><rect class="basic label-container" style="" x="-172.171875" y="-27" width="344.34375" height="54"/><g class="label" style="" transform="translate(-142.171875, -12)"><rect/><foreignObject width="284.34375" height="24"><div xmlns="http://www.w3.org/1999/xhtml" style="display: table; white-space: break-spaces; line-height: 1.5; max-width: 200px; text-align: center; width: 200px;"><span class="nodeLabel"><p>AggregatedCollectionPropertyValue</p></span></div></foreignObject></g></g><g class="node default" id="flowchart-U-11" transform="translate(1414.4609375, 625)"><rect class="basic label-container" style="" x="-46.2890625" y="-27" width="92.578125" height="54"/><g class="label" style="" transform="translate(-16.2890625, -12)"><rect/><foreignObject width="32.578125" height="24"><div xmlns="http://www.w3.org/1999/xhtml" style="display: table-cell; white-space: nowrap; line-height: 1.5; max-width: 200px; text-align: center;"><span class="nodeLabel"><p>Unit</p></span></div></foreignObject></g></g><g class="node default" id="flowchart-S-12" transform="translate(1414.4609375, 731)"><rect class="basic label-container" style="" x="-57.4765625" y="-27" width="114.953125" height="54"/><g class="label" style="" transform="translate(-27.4765625, -12)"><rect/><foreignObject width="54.953125" height="24"><div xmlns="http://www.w3.org/1999/xhtml" style="display: table-cell; white-space: nowrap; line-height: 1.5; max-width: 200px; text-align: center;"><span class="nodeLabel"><p>Source</p></span></div></foreignObject></g></g></g></g></g></svg>